<svg xmlns="http://www.w3.org/2000/svg" xmlns:xlink="http://www.w3.org/1999/xlink" version="1.1" width="256" height="256" viewBox="0 0 256 256" xml:space="preserve">

<defs>
</defs>
<g style="stroke: none; stroke-width: 0; stroke-dasharray: none; stroke-linecap: butt; stroke-linejoin: miter; stroke-miterlimit: 10; fill: none; fill-rule: nonzero; opacity: 1;" transform="translate(1.4065934065934016 1.4065934065934016) scale(2.81 2.81)" >
	<path d="M 21.172 54.555 c -2.471 0 -4.482 -2.011 -4.482 -4.482 v -1.194 h -1.195 c -2.471 0 -4.482 -2.011 -4.482 -4.482 c 0 -2.471 2.011 -4.482 4.482 -4.482 h 1.195 v -1.195 c 0 -2.471 2.011 -4.482 4.482 -4.482 s 4.482 2.011 4.482 4.482 v 1.195 h 1.195 c 2.471 0 4.482 2.011 4.482 4.482 c 0 2.472 -2.011 4.482 -4.482 4.482 h -1.195 v 1.194 C 25.654 52.544 23.643 54.555 21.172 54.555 z M 15.495 41.914 c -1.369 0 -2.482 1.113 -2.482 2.482 s 1.113 2.482 2.482 2.482 h 2.195 c 0.552 0 1 0.447 1 1 v 2.194 c 0 1.369 1.113 2.482 2.482 2.482 s 2.482 -1.113 2.482 -2.482 v -2.194 c 0 -0.553 0.448 -1 1 -1 h 2.195 c 1.369 0 2.482 -1.114 2.482 -2.482 s -1.113 -2.482 -2.482 -2.482 h -2.195 c -0.552 0 -1 -0.448 -1 -1 v -2.195 c 0 -1.369 -1.113 -2.482 -2.482 -2.482 s -2.482 1.113 -2.482 2.482 v 2.195 c 0 0.552 -0.448 1 -1 1 H 15.495 z" style="stroke: none; stroke-width: 1; stroke-dasharray: none; stroke-linecap: butt; stroke-linejoin: miter; stroke-miterlimit: 10; fill: rgb(0,0,0); fill-rule: nonzero; opacity: 1;" transform=" matrix(1 0 0 1 0 0) " stroke-linecap="round" />
	<path d="M 68.828 41.572 c -2.022 0 -3.668 -1.645 -3.668 -3.668 s 1.646 -3.667 3.668 -3.667 c 2.022 0 3.668 1.645 3.668 3.667 S 70.851 41.572 68.828 41.572 z M 68.828 36.237 c -0.92 0 -1.668 0.748 -1.668 1.667 s 0.748 1.667 1.668 1.667 s 1.668 -0.748 1.668 -1.667 S 69.748 36.237 68.828 36.237 z" style="stroke: none; stroke-width: 1; stroke-dasharray: none; stroke-linecap: butt; stroke-linejoin: miter; stroke-miterlimit: 10; fill: rgb(0,0,0); fill-rule: nonzero; opacity: 1;" transform=" matrix(1 0 0 1 0 0) " stroke-linecap="round" />
	<path d="M 68.828 54.555 c -2.022 0 -3.668 -1.646 -3.668 -3.668 c 0 -2.022 1.646 -3.667 3.668 -3.667 c 2.022 0 3.668 1.645 3.668 3.667 C 72.496 52.909 70.851 54.555 68.828 54.555 z M 68.828 49.22 c -0.92 0 -1.668 0.748 -1.668 1.667 c 0 0.92 0.748 1.668 1.668 1.668 s 1.668 -0.748 1.668 -1.668 C 70.496 49.968 69.748 49.22 68.828 49.22 z" style="stroke: none; stroke-width: 1; stroke-dasharray: none; stroke-linecap: butt; stroke-linejoin: miter; stroke-miterlimit: 10; fill: rgb(0,0,0); fill-rule: nonzero; opacity: 1;" transform=" matrix(1 0 0 1 0 0) " stroke-linecap="round" />
	<path d="M 62.337 48.063 c -2.022 0 -3.668 -1.646 -3.668 -3.668 s 1.646 -3.668 3.668 -3.668 c 2.022 0 3.668 1.645 3.668 3.668 S 64.359 48.063 62.337 48.063 z M 62.337 42.728 c -0.92 0 -1.668 0.748 -1.668 1.667 c 0 0.92 0.748 1.668 1.668 1.668 s 1.668 -0.748 1.668 -1.668 C 64.005 43.476 63.257 42.728 62.337 42.728 z" style="stroke: none; stroke-width: 1; stroke-dasharray: none; stroke-linecap: butt; stroke-linejoin: miter; stroke-miterlimit: 10; fill: rgb(0,0,0); fill-rule: nonzero; opacity: 1;" transform=" matrix(1 0 0 1 0 0) " stroke-linecap="round" />
	<path d="M 75.32 48.063 c -2.022 0 -3.668 -1.646 -3.668 -3.668 s 1.646 -3.668 3.668 -3.668 c 2.022 0 3.668 1.645 3.668 3.668 S 77.342 48.063 75.32 48.063 z M 75.32 42.728 c -0.92 0 -1.668 0.748 -1.668 1.667 c 0 0.92 0.748 1.668 1.668 1.668 c 0.92 0 1.668 -0.748 1.668 -1.668 C 76.987 43.476 76.239 42.728 75.32 42.728 z" style="stroke: none; stroke-width: 1; stroke-dasharray: none; stroke-linecap: butt; stroke-linejoin: miter; stroke-miterlimit: 10; fill: rgb(0,0,0); fill-rule: nonzero; opacity: 1;" transform=" matrix(1 0 0 1 0 0) " stroke-linecap="round" />
	<path d="M 7.963 74.564 c -1.761 0 -3.499 -0.598 -4.927 -1.741 c -2.133 -1.707 -3.254 -4.346 -3 -7.058 C 1.177 50.152 3.63 38.587 7.757 29.389 c 2.409 -5.371 8.485 -8.099 14.137 -6.348 c 2.119 0.657 4.179 1.372 6.171 2.063 c 5.811 2.017 11.3 3.921 16.936 3.921 s 11.124 -1.905 16.935 -3.921 c 1.992 -0.691 4.053 -1.406 6.173 -2.063 c 5.65 -1.75 11.727 0.976 14.136 6.348 c 4.126 9.197 6.58 20.763 7.722 36.397 c 0.253 2.691 -0.868 5.329 -3.001 7.037 c -2.081 1.668 -4.825 2.174 -7.335 1.359 c -5.195 -1.688 -9.83 -4.427 -14.313 -7.076 C 58.681 63.185 52.412 59.481 45 59.481 c -7.412 0 -13.68 3.704 -20.317 7.625 c -4.482 2.649 -9.118 5.388 -14.313 7.076 C 9.582 74.438 8.77 74.564 7.963 74.564 z M 45 57.481 c 7.959 0 14.456 3.839 21.334 7.903 c 4.39 2.594 8.928 5.275 13.912 6.896 c 1.897 0.616 3.89 0.245 5.468 -1.019 c 1.605 -1.285 2.45 -3.27 2.258 -5.309 c -1.11 -15.204 -3.581 -26.89 -7.553 -35.745 c -1.996 -4.449 -7.032 -6.708 -11.72 -5.256 c -2.088 0.647 -4.132 1.357 -6.108 2.043 C 56.616 29.067 50.973 31.025 45 31.025 c -5.973 0 -11.616 -1.959 -17.591 -4.032 c -1.976 -0.686 -4.02 -1.395 -6.107 -2.042 c -4.686 -1.454 -9.723 0.807 -11.719 5.256 c -3.973 8.856 -6.444 20.541 -7.553 35.725 c -0.193 2.06 0.651 4.044 2.257 5.33 c 1.578 1.262 3.57 1.634 5.467 1.018 c 4.985 -1.62 9.524 -4.302 13.914 -6.896 C 30.544 61.319 37.041 57.481 45 57.481 z" style="stroke: none; stroke-width: 1; stroke-dasharray: none; stroke-linecap: butt; stroke-linejoin: miter; stroke-miterlimit: 10; fill: rgb(0,0,0); fill-rule: nonzero; opacity: 1;" transform=" matrix(1 0 0 1 0 0) " stroke-linecap="round" />
</g>
</svg>